<svg id="Layer_1" data-name="Layer 1" xmlns="http://www.w3.org/2000/svg" viewBox="0 0 400 229"><defs><style>.cls-1,.cls-2{fill:#00e5ee;}.cls-2{font-size:162.06px;font-family:AvenirNext-Regular, Avenir Next;}.cls-3{letter-spacing:-0.01em;}</style></defs><title>woc-logo</title><path class="cls-1" d="M200,104c52.33,0,101.42,10.39,138.23,29.25,17.51,9,31.19,19.34,40.66,30.81S393,187.33,393,199.5s-4.75,24.09-14.12,35.44-23.14,21.83-40.66,30.81C301.42,284.61,252.33,295,200,295S98.58,284.61,61.77,265.75c-17.51-9-31.19-19.34-40.66-30.81S7,211.67,7,199.5s4.75-24.09,14.12-35.44,23.14-21.83,40.66-30.81C98.58,114.39,147.67,104,200,104m0-7C89.54,97,0,142.89,0,199.5S89.54,302,200,302s200-45.89,200-102.5S310.46,97,200,97Z" transform="translate(0 -97)"/><text class="cls-2" transform="translate(54.69 162.39) scale(0.7 1)"><tspan class="cls-3">W</tspan><tspan x="155.57" y="0">OC</tspan></text></svg>